<svg id="Capa_1" enable-background="new 0 0 512 512" height="512" viewBox="0 0 512 512" width="512" xmlns="http://www.w3.org/2000/svg"><g><g><path d="m191.35 127.709v-46.467c0-11.158 9.045-20.203 20.203-20.203h88.894c11.158 0 20.203 9.045 20.203 20.203v46.467z" fill="#818181"/></g><g><path d="m223.675 93.364h64.65v34.346h-64.65z" fill="#9dc6fb"/></g><g><path d="m118.618 127.709h-68.691v-24.244c0-5.579 4.523-10.102 10.102-10.102h48.488c5.579 0 10.102 4.523 10.102 10.102v24.244z" fill="#818181"/></g><g><path d="m154.984 40.835h202.033v497h-202.033z" fill="#f9f6f9" transform="matrix(0 1 -1 0 545.335 33.335)"/></g><g><path d="m393.382 306.508c9.484 0 17.173-7.689 17.173-17.173s-7.689-17.173-17.173-17.173h-19.193v34.346z" fill="#454545"/></g><g><path d="m118.618 306.508c-9.484 0-17.173-7.689-17.173-17.173s7.689-17.173 17.173-17.173h19.193v34.346z" fill="#454545"/></g><g><path d="m7.5 188.319v-50.508c0-5.579 4.523-10.102 10.102-10.102h476.797c5.579 0 10.102 4.523 10.102 10.102v50.508z" fill="#eab14d"/></g><g><path d="m504.5 390.352v50.508c0 5.579-4.523 10.102-10.102 10.102h-476.797c-5.579 0-10.102-4.523-10.102-10.102v-50.508z" fill="#eab14d"/></g><g><path d="m480.256 188.319h24.244v202.033h-24.244z" fill="#dfdde2"/></g><g><path d="m494.399 127.709h-24.244c5.579 0 10.102 4.523 10.102 10.102v50.508h24.243v-50.508c0-5.579-4.523-10.102-10.101-10.102z" fill="#e49542"/></g><g><path d="m480.256 390.352v50.508c0 5.579-4.523 10.102-10.102 10.102h24.244c5.579 0 10.102-4.523 10.102-10.102v-50.508z" fill="#e49542"/></g><g><circle cx="256" cy="289.335" fill="#818181" r="120.209"/></g><g><path d="m334.178 198.025c18.013 21.019 28.899 48.326 28.899 78.178 0 66.39-53.82 120.209-120.209 120.209-29.852 0-57.159-10.886-78.178-28.899 22.047 25.726 54.773 42.031 91.31 42.031 66.39 0 120.209-53.82 120.209-120.209 0-36.537-16.305-69.263-42.031-91.31z" fill="#595959"/></g><g><circle cx="256" cy="289.335" fill="#454545" r="87.884"/></g><g><circle cx="256" cy="289.335" fill="#9dc6fb" r="40.407"/></g><g><path d="m275.318 253.855c3.139 5.742 4.926 12.325 4.926 19.318 0 22.28-18.126 40.406-40.407 40.406-6.993 0-13.575-1.787-19.318-4.926 6.863 12.554 20.193 21.089 35.48 21.089 22.28 0 40.407-18.126 40.407-40.407.001-15.287-8.534-28.617-21.088-35.48z" fill="#80b4fb"/></g><g><circle cx="441.87" cy="188.319" fill="#e28086" r="26.264"/></g><g><path d="m494.398 120.209h-166.248v-38.967c0-15.275-12.428-27.703-27.703-27.703h-88.895c-15.275 0-27.703 12.428-27.703 27.703v38.968h-57.731v-16.744c0-9.706-7.896-17.602-17.602-17.602h-48.488c-9.705 0-17.602 7.896-17.602 17.602v16.744h-24.824c-9.706-.001-17.602 7.895-17.602 17.601v170.332c0 4.142 3.357 7.5 7.5 7.5s7.5-3.358 7.5-7.5v-112.324h154.126c-19.361 17.998-33.142 41.915-38.435 68.843h-12.074c-13.604 0-24.673 11.068-24.673 24.673s11.068 24.673 24.673 24.673h12.074c5.293 26.928 19.074 50.845 38.435 68.843h-154.126v-39.66c0-4.142-3.357-7.5-7.5-7.5s-7.5 3.358-7.5 7.5v97.668c0 9.706 7.896 17.602 17.602 17.602h476.797c9.705 0 17.602-7.896 17.602-17.602v-179.061c0-4.142-3.357-7.5-7.5-7.5s-7.5 3.358-7.5 7.5v121.054h-154.127c19.361-17.998 33.142-41.915 38.435-68.843h12.074c13.604 0 24.673-11.068 24.673-24.673s-11.068-24.673-24.673-24.673h-12.074c-5.292-26.928-19.074-50.845-38.434-68.843h66.082c3.421 15.018 16.875 26.264 32.915 26.264 16.039 0 29.492-11.245 32.914-26.264h22.214v30.966c0 4.142 3.357 7.5 7.5 7.5s7.5-3.358 7.5-7.5v-88.975c0-9.706-7.896-17.602-17.602-17.602zm-295.548-38.967c0-7.004 5.698-12.703 12.703-12.703h88.895c7.005 0 12.703 5.699 12.703 12.703v38.968h-17.325v-26.846c0-4.142-3.357-7.5-7.5-7.5h-64.65c-4.143 0-7.5 3.358-7.5 7.5v26.846h-17.326zm32.325 38.967v-19.346h49.65v19.346zm-173.748-16.744c0-1.435 1.167-2.602 2.602-2.602h48.488c1.435 0 2.602 1.167 2.602 2.602v16.744h-53.692zm61.191 195.543c-5.334 0-9.673-4.339-9.673-9.673s4.339-9.673 9.673-9.673h10.037c-.24 3.193-.364 6.419-.364 9.673s.124 6.479.364 9.673zm378.382 98.844v43.008c0 1.435-1.167 2.602-2.602 2.602h-476.796c-1.435 0-2.602-1.167-2.602-2.602v-43.008h173.743c19.545 12.158 42.593 19.193 67.257 19.193s47.712-7.035 67.257-19.193zm-103.618-118.189c5.334 0 9.673 4.339 9.673 9.673s-4.339 9.673-9.673 9.673h-10.037c.24-3.193.364-6.419.364-9.673s-.124-6.479-.364-9.673zm-24.673 9.672c0 62.148-50.561 112.709-112.709 112.709s-112.709-50.561-112.709-112.709 50.561-112.709 112.709-112.709 112.709 50.561 112.709 112.709zm73.161-82.252c-10.33 0-18.736-8.391-18.762-18.716 0-.016.002-.032.002-.048s-.002-.032-.002-.049c.026-10.324 8.432-18.717 18.762-18.717 10.334 0 18.741 8.397 18.762 18.726 0 .013-.002.026-.002.039s.002.025.002.038c-.022 10.331-8.428 18.727-18.762 18.727zm32.914-26.263c-3.421-15.019-16.875-26.265-32.914-26.265-16.04 0-29.494 11.246-32.915 26.265h-85.698c-19.545-12.158-42.594-19.194-67.258-19.194s-47.712 7.035-67.257 19.193h-173.742v-43.008c0-1.435 1.167-2.602 2.602-2.602h476.797c1.435 0 2.602 1.167 2.602 2.602v43.009z"/><path d="m303.906 289.335c0-26.416-21.49-47.907-47.906-47.907s-47.906 21.491-47.906 47.907 21.49 47.906 47.906 47.906 47.906-21.49 47.906-47.906zm-80.812 0c0-18.145 14.762-32.907 32.906-32.907s32.906 14.762 32.906 32.907-14.762 32.906-32.906 32.906-32.906-14.761-32.906-32.906z"/><path d="m256 193.951c-16 0-31.84 4.058-45.808 11.735-3.63 1.995-4.955 6.555-2.96 10.186s6.558 4.956 10.185 2.96c11.761-6.464 25.103-9.881 38.583-9.881 44.324 0 80.384 36.06 80.384 80.384s-36.06 80.385-80.384 80.385-80.384-36.06-80.384-80.384c0-18.233 5.978-35.435 17.286-49.745 2.567-3.25 2.016-7.966-1.234-10.534-3.25-2.569-7.966-2.016-10.535 1.234-13.422 16.985-20.517 37.403-20.517 59.045 0 52.595 42.789 95.384 95.384 95.384s95.384-42.789 95.384-95.384-42.789-95.385-95.384-95.385z"/></g></g></svg>